<svg width="178" height="33" viewBox="0 0 178 33" fill="none" xmlns="http://www.w3.org/2000/svg">
<path d="M7.32955 23.2727C6.06818 23.2727 4.98011 22.9943 4.06534 22.4375C3.15625 21.875 2.45455 21.0909 1.96023 20.0852C1.47159 19.0739 1.22727 17.8977 1.22727 16.5568C1.22727 15.2159 1.47159 14.0341 1.96023 13.0114C2.45455 11.983 3.14205 11.1818 4.02273 10.608C4.90909 10.0284 5.94318 9.73864 7.125 9.73864C7.80682 9.73864 8.48011 9.85227 9.14489 10.0795C9.80966 10.3068 10.4148 10.6761 10.9602 11.1875C11.5057 11.6932 11.9403 12.3636 12.2642 13.1989C12.5881 14.0341 12.75 15.0625 12.75 16.2841V17.1364H2.65909V15.3977H10.7045C10.7045 14.6591 10.5568 14 10.2614 13.4205C9.97159 12.8409 9.55682 12.3835 9.01705 12.0483C8.48295 11.7131 7.85227 11.5455 7.125 11.5455C6.32386 11.5455 5.63068 11.7443 5.04545 12.142C4.46591 12.5341 4.01989 13.0455 3.70739 13.6761C3.39489 14.3068 3.23864 14.983 3.23864 15.7045V16.8636C3.23864 17.8523 3.40909 18.6903 3.75 19.3778C4.09659 20.0597 4.5767 20.5795 5.19034 20.9375C5.80398 21.2898 6.51705 21.4659 7.32955 21.4659C7.85795 21.4659 8.33523 21.392 8.76136 21.2443C9.19318 21.0909 9.56534 20.8636 9.87784 20.5625C10.1903 20.2557 10.4318 19.875 10.6023 19.4205L12.5455 19.9659C12.3409 20.625 11.9972 21.2045 11.5142 21.7045C11.0313 22.1989 10.4347 22.5852 9.72443 22.8636C9.0142 23.1364 8.21591 23.2727 7.32955 23.2727ZM15.8097 23V9.90909H17.7528V11.8864H17.8892C18.1278 11.2386 18.5597 10.7131 19.1847 10.3097C19.8097 9.90625 20.5142 9.70454 21.2983 9.70454C21.446 9.70454 21.6307 9.70739 21.8523 9.71307C22.0739 9.71875 22.2415 9.72727 22.3551 9.73864V11.7841C22.2869 11.767 22.1307 11.7415 21.8864 11.7074C21.6477 11.6676 21.3949 11.6477 21.1278 11.6477C20.4915 11.6477 19.9233 11.7812 19.4233 12.0483C18.929 12.3097 18.5369 12.6733 18.2472 13.1392C17.9631 13.5994 17.821 14.125 17.821 14.7159V23H15.8097ZM24.7393 23V9.90909H26.7507V23H24.7393ZM25.7621 7.72727C25.37 7.72727 25.032 7.59375 24.7479 7.3267C24.4695 7.05966 24.3303 6.73864 24.3303 6.36364C24.3303 5.98864 24.4695 5.66761 24.7479 5.40057C25.032 5.13352 25.37 5 25.7621 5C26.1541 5 26.4893 5.13352 26.7678 5.40057C27.0518 5.66761 27.1939 5.98864 27.1939 6.36364C27.1939 6.73864 27.0518 7.05966 26.7678 7.3267C26.4893 7.59375 26.1541 7.72727 25.7621 7.72727ZM35.7528 23.2727C34.5256 23.2727 33.4688 22.983 32.5824 22.4034C31.696 21.8239 31.0142 21.0256 30.5369 20.0085C30.0597 18.9915 29.821 17.8295 29.821 16.5227C29.821 15.1932 30.0653 14.0199 30.554 13.0028C31.0483 11.9801 31.7358 11.1818 32.6165 10.608C33.5028 10.0284 34.5369 9.73864 35.7188 9.73864C36.6392 9.73864 37.4688 9.90909 38.2074 10.25C38.946 10.5909 39.5511 11.0682 40.0227 11.6818C40.4943 12.2955 40.7869 13.0114 40.9006 13.8295H38.8892C38.7358 13.233 38.3949 12.7045 37.8665 12.2443C37.3438 11.7784 36.6392 11.5455 35.7528 11.5455C34.9688 11.5455 34.2813 11.75 33.6903 12.1591C33.1051 12.5625 32.6477 13.1335 32.3182 13.8722C31.9943 14.6051 31.8324 15.4659 31.8324 16.4545C31.8324 17.4659 31.9915 18.3466 32.3097 19.0966C32.6335 19.8466 33.0881 20.429 33.6733 20.8438C34.2642 21.2585 34.9574 21.4659 35.7528 21.4659C36.2756 21.4659 36.75 21.375 37.1761 21.1932C37.6023 21.0114 37.9631 20.75 38.2585 20.4091C38.554 20.0682 38.7642 19.6591 38.8892 19.1818H40.9006C40.7869 19.9545 40.5057 20.6506 40.0568 21.2699C39.6136 21.8835 39.0256 22.3722 38.2926 22.7358C37.5653 23.0938 36.7188 23.2727 35.7528 23.2727ZM53.8977 27.6023C52.1591 27.6023 50.6222 27.3636 49.2869 26.8864C47.9517 26.4148 46.8295 25.7188 45.9205 24.7983C45.0114 23.8778 44.3239 22.75 43.858 21.4148C43.392 20.0795 43.1591 18.5511 43.1591 16.8295C43.1591 15.1648 43.3949 13.6761 43.8665 12.3636C44.3438 11.0511 45.0341 9.9375 45.9375 9.02273C46.8466 8.10227 47.9489 7.40057 49.2443 6.91761C50.5455 6.43466 52.017 6.19318 53.6591 6.19318C55.2557 6.19318 56.6534 6.45454 57.8523 6.97727C59.0568 7.49432 60.0625 8.19602 60.8693 9.08239C61.6818 9.96307 62.2898 10.9545 62.6932 12.0568C63.1023 13.1591 63.3068 14.2955 63.3068 15.4659C63.3068 16.2898 63.267 17.125 63.1875 17.9716C63.108 18.8182 62.9403 19.5966 62.6847 20.3068C62.429 21.0114 62.0341 21.5795 61.5 22.0114C60.9716 22.4432 60.2557 22.6591 59.3523 22.6591C58.9545 22.6591 58.517 22.5966 58.0398 22.4716C57.5625 22.3466 57.1392 22.1392 56.7699 21.8494C56.4006 21.5597 56.1818 21.1705 56.1136 20.6818H56.0114C55.875 21.0114 55.6648 21.3239 55.3807 21.6193C55.1023 21.9148 54.7358 22.1506 54.2812 22.3267C53.8324 22.5028 53.2841 22.5795 52.6364 22.5568C51.8977 22.5284 51.2472 22.3636 50.6847 22.0625C50.1222 21.7557 49.6506 21.3409 49.2699 20.8182C48.8949 20.2898 48.6108 19.679 48.4176 18.9858C48.2301 18.2869 48.1364 17.5341 48.1364 16.7273C48.1364 15.9602 48.25 15.2585 48.4773 14.6222C48.7045 13.9858 49.0199 13.429 49.4233 12.9517C49.8324 12.4744 50.3097 12.0937 50.8551 11.8097C51.4063 11.5199 52 11.3409 52.6364 11.2727C53.2045 11.2159 53.7216 11.2415 54.1875 11.3494C54.6534 11.4517 55.0369 11.608 55.3381 11.8182C55.6392 12.0227 55.8295 12.25 55.9091 12.5H56.0114V11.5455H57.8182V19.25C57.8182 19.7273 57.9517 20.1477 58.2188 20.5114C58.4858 20.875 58.875 21.0568 59.3864 21.0568C59.9659 21.0568 60.4091 20.858 60.7159 20.4602C61.0284 20.0625 61.2415 19.4489 61.3551 18.6193C61.4744 17.7898 61.5341 16.7273 61.5341 15.4318C61.5341 14.6705 61.429 13.9205 61.2188 13.1818C61.0142 12.4375 60.7017 11.7415 60.2812 11.0938C59.8665 10.446 59.3409 9.875 58.7045 9.38068C58.0682 8.88636 57.321 8.5 56.4631 8.22159C55.6108 7.9375 54.642 7.79545 53.5568 7.79545C52.2216 7.79545 51.0256 8.00284 49.9688 8.41761C48.9176 8.8267 48.0227 9.42614 47.2841 10.2159C46.5511 11 45.9915 11.9545 45.6051 13.0795C45.2244 14.1989 45.0341 15.4716 45.0341 16.8977C45.0341 18.3466 45.2244 19.6335 45.6051 20.7585C45.9915 21.8835 46.5597 22.8324 47.3097 23.6051C48.0653 24.3778 49 24.9631 50.1136 25.3608C51.2273 25.7642 52.5114 25.9659 53.9659 25.9659C54.5909 25.9659 55.2074 25.9063 55.8153 25.7869C56.4233 25.6676 56.9602 25.5369 57.4261 25.3949C57.892 25.2528 58.2273 25.1477 58.4318 25.0795L58.9091 26.6477C58.5568 26.7955 58.0966 26.9432 57.5284 27.0909C56.9659 27.2386 56.3636 27.3608 55.7216 27.4574C55.0852 27.554 54.4773 27.6023 53.8977 27.6023ZM52.9091 20.8182C53.6705 20.8182 54.2869 20.6648 54.7585 20.358C55.2301 20.0511 55.5739 19.5881 55.7898 18.9688C56.0057 18.3494 56.1136 17.5682 56.1136 16.625C56.1136 15.6705 55.9943 14.9261 55.7557 14.392C55.517 13.858 55.1648 13.483 54.6989 13.267C54.233 13.0511 53.6591 12.9432 52.9773 12.9432C52.3295 12.9432 51.7756 13.1136 51.3153 13.4545C50.8608 13.7898 50.5114 14.2386 50.267 14.8011C50.0284 15.358 49.9091 15.9659 49.9091 16.625C49.9091 17.3523 50.0057 18.0369 50.1989 18.679C50.392 19.3153 50.7074 19.8324 51.1449 20.2301C51.5824 20.6222 52.1705 20.8182 52.9091 20.8182ZM68.3288 15.125V23H66.3175V9.90909H68.2607V11.9545H68.4311C68.7379 11.2898 69.2038 10.7557 69.8288 10.3523C70.4538 9.94318 71.2607 9.73864 72.2493 9.73864C73.1357 9.73864 73.9112 9.92045 74.576 10.2841C75.2408 10.642 75.7578 11.1875 76.1271 11.9205C76.4964 12.6477 76.6811 13.5682 76.6811 14.6818V23H74.6697V14.8182C74.6697 13.7898 74.4027 12.9886 73.8686 12.4148C73.3345 11.8352 72.6016 11.5455 71.6697 11.5455C71.0277 11.5455 70.4538 11.6847 69.9482 11.9631C69.4482 12.2415 69.0533 12.6477 68.7635 13.1818C68.4737 13.7159 68.3288 14.3636 68.3288 15.125ZM85.8452 23.2727C84.5838 23.2727 83.4957 22.9943 82.581 22.4375C81.6719 21.875 80.9702 21.0909 80.4759 20.0852C79.9872 19.0739 79.7429 17.8977 79.7429 16.5568C79.7429 15.2159 79.9872 14.0341 80.4759 13.0114C80.9702 11.983 81.6577 11.1818 82.5384 10.608C83.4247 10.0284 84.4588 9.73864 85.6406 9.73864C86.3224 9.73864 86.9957 9.85227 87.6605 10.0795C88.3253 10.3068 88.9304 10.6761 89.4759 11.1875C90.0213 11.6932 90.456 12.3636 90.7798 13.1989C91.1037 14.0341 91.2656 15.0625 91.2656 16.2841V17.1364H81.1747V15.3977H89.2202C89.2202 14.6591 89.0724 14 88.777 13.4205C88.4872 12.8409 88.0724 12.3835 87.5327 12.0483C86.9986 11.7131 86.3679 11.5455 85.6406 11.5455C84.8395 11.5455 84.1463 11.7443 83.5611 12.142C82.9815 12.5341 82.5355 13.0455 82.223 13.6761C81.9105 14.3068 81.7543 14.983 81.7543 15.7045V16.8636C81.7543 17.8523 81.9247 18.6903 82.2656 19.3778C82.6122 20.0597 83.0923 20.5795 83.706 20.9375C84.3196 21.2898 85.0327 21.4659 85.8452 21.4659C86.3736 21.4659 86.8509 21.392 87.277 21.2443C87.7088 21.0909 88.081 20.8636 88.3935 20.5625C88.706 20.2557 88.9474 19.875 89.1179 19.4205L91.0611 19.9659C90.8565 20.625 90.5128 21.2045 90.0298 21.7045C89.5469 22.1989 88.9503 22.5852 88.2401 22.8636C87.5298 23.1364 86.7315 23.2727 85.8452 23.2727ZM104.631 9.90909L99.7905 23H97.745L92.9041 9.90909H95.0859L98.6996 20.3409H98.8359L102.45 9.90909H104.631ZM112.306 23.2727C111.045 23.2727 109.957 22.9943 109.042 22.4375C108.133 21.875 107.431 21.0909 106.937 20.0852C106.448 19.0739 106.204 17.8977 106.204 16.5568C106.204 15.2159 106.448 14.0341 106.937 13.0114C107.431 11.983 108.119 11.1818 108.999 10.608C109.886 10.0284 110.92 9.73864 112.102 9.73864C112.783 9.73864 113.457 9.85227 114.121 10.0795C114.786 10.3068 115.391 10.6761 115.937 11.1875C116.482 11.6932 116.917 12.3636 117.241 13.1989C117.565 14.0341 117.727 15.0625 117.727 16.2841V17.1364H107.636V15.3977H115.681C115.681 14.6591 115.533 14 115.238 13.4205C114.948 12.8409 114.533 12.3835 113.994 12.0483C113.46 11.7131 112.829 11.5455 112.102 11.5455C111.3 11.5455 110.607 11.7443 110.022 12.142C109.442 12.5341 108.996 13.0455 108.684 13.6761C108.371 14.3068 108.215 14.983 108.215 15.7045V16.8636C108.215 17.8523 108.386 18.6903 108.727 19.3778C109.073 20.0597 109.553 20.5795 110.167 20.9375C110.781 21.2898 111.494 21.4659 112.306 21.4659C112.835 21.4659 113.312 21.392 113.738 21.2443C114.17 21.0909 114.542 20.8636 114.854 20.5625C115.167 20.2557 115.408 19.875 115.579 19.4205L117.522 19.9659C117.317 20.625 116.974 21.2045 116.491 21.7045C116.008 22.1989 115.411 22.5852 114.701 22.8636C113.991 23.1364 113.192 23.2727 112.306 23.2727ZM130.059 12.8409L128.252 13.3523C128.138 13.0511 127.971 12.7585 127.749 12.4744C127.533 12.1847 127.238 11.946 126.863 11.7585C126.488 11.571 126.008 11.4773 125.423 11.4773C124.621 11.4773 123.954 11.6619 123.42 12.0312C122.891 12.3949 122.627 12.858 122.627 13.4205C122.627 13.9205 122.809 14.3153 123.173 14.6051C123.536 14.8949 124.104 15.1364 124.877 15.3295L126.82 15.8068C127.991 16.0909 128.863 16.5256 129.437 17.1108C130.011 17.6903 130.298 18.4375 130.298 19.3523C130.298 20.1023 130.082 20.7727 129.65 21.3636C129.224 21.9545 128.627 22.4205 127.86 22.7614C127.093 23.1023 126.201 23.2727 125.184 23.2727C123.849 23.2727 122.744 22.983 121.869 22.4034C120.994 21.8239 120.44 20.9773 120.207 19.8636L122.116 19.3864C122.298 20.0909 122.641 20.6193 123.147 20.9716C123.658 21.3239 124.326 21.5 125.15 21.5C126.087 21.5 126.832 21.3011 127.383 20.9034C127.94 20.5 128.218 20.017 128.218 19.4545C128.218 19 128.059 18.6193 127.741 18.3125C127.423 18 126.934 17.767 126.275 17.6136L124.093 17.1023C122.894 16.8182 122.013 16.3778 121.451 15.7812C120.894 15.179 120.616 14.4261 120.616 13.5227C120.616 12.7841 120.823 12.1307 121.238 11.5625C121.658 10.9943 122.229 10.5483 122.951 10.2244C123.678 9.90057 124.502 9.73864 125.423 9.73864C126.718 9.73864 127.735 10.0227 128.474 10.5909C129.218 11.1591 129.746 11.9091 130.059 12.8409Z" fill="#2AC111"/>
<path d="M134.791 23.1364C134.371 23.1364 134.01 22.9858 133.709 22.6847C133.408 22.3835 133.257 22.0227 133.257 21.6023C133.257 21.1818 133.408 20.821 133.709 20.5199C134.01 20.2187 134.371 20.0682 134.791 20.0682C135.212 20.0682 135.572 20.2187 135.874 20.5199C136.175 20.821 136.325 21.1818 136.325 21.6023C136.325 21.8807 136.254 22.1364 136.112 22.3693C135.976 22.6023 135.791 22.7898 135.558 22.9318C135.331 23.0682 135.075 23.1364 134.791 23.1364ZM134.791 13.4205C134.371 13.4205 134.01 13.2699 133.709 12.9688C133.408 12.6676 133.257 12.3068 133.257 11.8864C133.257 11.4659 133.408 11.1051 133.709 10.804C134.01 10.5028 134.371 10.3523 134.791 10.3523C135.212 10.3523 135.572 10.5028 135.874 10.804C136.175 11.1051 136.325 11.4659 136.325 11.8864C136.325 12.1648 136.254 12.4205 136.112 12.6534C135.976 12.8864 135.791 13.0739 135.558 13.2159C135.331 13.3523 135.075 13.4205 134.791 13.4205ZM160.869 25.1818V3.36364H162.266V25.1818H160.869ZM165.573 9.90909C165.471 9.04545 165.056 8.375 164.329 7.89773C163.602 7.42045 162.71 7.18182 161.653 7.18182C160.88 7.18182 160.204 7.30682 159.624 7.55682C159.05 7.80682 158.602 8.15057 158.278 8.58807C157.96 9.02557 157.8 9.52273 157.8 10.0795C157.8 10.5455 157.911 10.946 158.133 11.2812C158.36 11.6108 158.65 11.8864 159.002 12.108C159.354 12.3239 159.724 12.5028 160.11 12.6449C160.496 12.7812 160.852 12.892 161.175 12.9773L162.948 13.4545C163.403 13.5739 163.908 13.7386 164.465 13.9489C165.028 14.1591 165.565 14.446 166.076 14.8097C166.593 15.1676 167.019 15.6278 167.354 16.1903C167.69 16.7528 167.857 17.4432 167.857 18.2614C167.857 19.2045 167.61 20.0568 167.116 20.8182C166.627 21.5795 165.911 22.1847 164.968 22.6335C164.031 23.0824 162.891 23.3068 161.55 23.3068C160.3 23.3068 159.218 23.1051 158.303 22.7017C157.394 22.2983 156.678 21.7358 156.156 21.0142C155.638 20.2926 155.346 19.4545 155.278 18.5H157.46C157.516 19.1591 157.738 19.7045 158.124 20.1364C158.516 20.5625 159.011 20.8807 159.607 21.0909C160.21 21.2955 160.857 21.3977 161.55 21.3977C162.357 21.3977 163.082 21.267 163.724 21.0057C164.366 20.7386 164.874 20.3693 165.249 19.8977C165.624 19.4205 165.812 18.8636 165.812 18.2273C165.812 17.6477 165.65 17.1761 165.326 16.8125C165.002 16.4489 164.576 16.1534 164.048 15.9261C163.519 15.6989 162.948 15.5 162.335 15.3295L160.187 14.7159C158.823 14.3239 157.744 13.7642 156.948 13.0369C156.153 12.3097 155.755 11.358 155.755 10.1818C155.755 9.20454 156.019 8.35227 156.548 7.625C157.082 6.89205 157.798 6.32386 158.695 5.92045C159.599 5.51136 160.607 5.30682 161.721 5.30682C162.846 5.30682 163.846 5.50852 164.721 5.91193C165.596 6.30966 166.289 6.85511 166.8 7.54829C167.317 8.24148 167.59 9.02841 167.619 9.90909H165.573Z" fill="#2A57CB"/>
<path d="M140.071 17.8182C140.054 16.875 140.207 16.1165 140.531 15.5426C140.855 14.9688 141.276 14.5511 141.793 14.2898C142.315 14.0284 142.866 13.8977 143.446 13.8977C144.026 13.8977 144.554 14.0256 145.031 14.2812C145.514 14.5312 146.065 14.9261 146.685 15.4659C147.105 15.8295 147.44 16.0852 147.69 16.233C147.946 16.3807 148.224 16.4545 148.526 16.4545C149.014 16.4545 149.401 16.2784 149.685 15.9261C149.969 15.5682 150.105 15.0511 150.094 14.375H151.935C151.952 15.3182 151.798 16.0767 151.474 16.6506C151.156 17.2244 150.736 17.642 150.213 17.9034C149.69 18.1648 149.139 18.2955 148.56 18.2955C147.98 18.2955 147.452 18.1705 146.974 17.9205C146.497 17.6648 145.946 17.267 145.321 16.7273C144.906 16.3636 144.571 16.108 144.315 15.9602C144.06 15.8125 143.781 15.7386 143.48 15.7386C143.02 15.7386 142.639 15.9006 142.338 16.2244C142.043 16.5426 141.901 17.0739 141.912 17.8182H140.071Z" fill="#2E5DD8"/>
</svg>
